# xmcd
#
# Track frame offsets:
#	151
#	17706
#	32783
#	47840
#	60474
#	75553
#	89108
#	107402
#	120232
#	139527
#	153108
#	166622
#
# Disc length: 2397 seconds
#
# Revision: 1
# Processed by: cddbd v1.5.1PL0 Copyright (c) Steve Scherf et al.
# Submitted via: audiograbber 1.83.01
#
DISCID=84095b0c
DTITLE=Reidar Larsen - Red, White and Blues
DYEAR=1985
DGENRE=
TTITLE0=I'm Gonna Have To Do It
TTITLE1=Going Away Blues
TTITLE2=What About Me
TTITLE3=Swanee River Boogie
TTITLE4=Too Many Times
TTITLE5=She's Dynamite
TTITLE6=I'll Give You Money
TTITLE7=Stickin' Witcha Woman
TTITLE8=Born To Ramble
TTITLE9=It Makes No Difference
TTITLE10=Cook House Shuffle
TTITLE11=Ko-Ko-Mo
EXTD=
EXTT0=
EXTT1=
EXTT2=
EXTT3=
EXTT4=
EXTT5=
EXTT6=
EXTT7=
EXTT8=
EXTT9=
EXTT10=
EXTT11=
PLAYORDER=
